<svg width="967" height="152" viewBox="0 0 967 152" fill="none" xmlns="http://www.w3.org/2000/svg">
<path d="M92.7471 112.384H74.1982V84.6465C62.2223 97.1667 44.5102 101.706 23.1709 102.241L21.2393 102.266H18.5498V112.384H0V75.2852C3.92159e-07 34.9467 32.1904 2.1266 72.2842 1.11133L74.1982 1.08691H92.7471V112.384ZM74.1982 19.6367C43.4644 19.6367 18.5498 44.5514 18.5498 75.2852V83.7158H21.2393C49.7988 83.7158 71.0192 62.5875 74.1982 35.2432V19.6367Z" fill="white"/>
<path d="M123.097 75.2222V112.384H105.115V77.4699C105.115 51.5467 120.699 36.712 145.124 36.712V54.2439C131.938 54.3938 123.097 62.1857 123.097 75.2222ZM164.254 74.9225C164.254 87.959 172.945 96.9497 185.832 96.9497C196.171 96.9497 202.464 91.5553 205.012 83.164H223.742C220.446 101.895 206.51 113.882 185.832 113.882C162.156 113.882 146.422 98.2984 146.422 74.9225C146.422 51.5467 162.156 35.9628 185.832 35.9628C206.51 35.9628 220.446 47.9504 223.742 66.681H205.012C202.464 58.2897 196.171 52.8953 185.832 52.8953C172.945 52.8953 164.254 61.7362 164.254 74.9225ZM229.873 74.9225C229.873 51.5467 245.607 35.9628 269.282 35.9628C292.808 35.9628 308.692 51.5467 308.692 74.9225C308.692 98.2984 292.808 113.882 269.282 113.882C245.607 113.882 229.873 98.2984 229.873 74.9225ZM247.705 74.9225C247.705 87.959 256.396 96.9497 269.282 96.9497C282.019 96.9497 290.71 87.959 290.71 74.9225C290.71 61.7362 282.019 52.8953 269.282 52.8953C256.396 52.8953 247.705 61.7362 247.705 74.9225Z" fill="white"/>
<path d="M322.247 112.384V7.49225H340.228V95.4513H343.974C373.494 95.4513 389.378 77.4699 389.378 46.1523V7.49225H407.509V44.9535C407.509 88.7083 383.384 112.384 338.58 112.384H322.247ZM487.993 77.6197H428.654C429.104 89.1578 437.345 97.5491 450.532 97.5491C460.571 97.5491 467.314 92.4544 469.562 84.9621H487.993C484.697 103.543 470.761 113.882 450.082 113.882C426.407 113.882 410.673 98.2984 410.673 74.9225C410.673 51.5467 426.407 35.9628 450.082 35.9628C471.96 35.9628 487.993 49.5987 487.993 73.1244V77.6197ZM429.554 65.4823H469.113C467.614 56.4916 460.721 50.6476 450.232 50.6476C439.743 50.6476 432.251 57.2408 429.554 65.4823ZM512.544 75.2222V112.384H494.563V77.4699C494.563 51.5467 510.147 36.712 534.572 36.712V54.2439C521.385 54.3938 512.544 62.1857 512.544 75.2222ZM535.87 73.7238C535.87 50.9473 549.805 35.9628 570.484 35.9628C586.667 35.9628 595.208 44.3541 595.208 51.247V52.5956L596.557 52.7455V-5.11676e-06H614.688V74.9225C614.538 98.2984 598.805 113.882 575.279 113.882C551.454 113.882 535.87 98.8977 535.87 73.7238ZM553.701 74.9225C553.701 88.1089 562.392 96.9497 575.279 96.9497C588.316 96.9497 596.557 88.4086 596.557 74.9225C596.557 61.7362 590.114 52.8953 574.829 52.8953C561.793 52.8953 553.701 61.4365 553.701 74.9225ZM698.543 77.6197H639.204C639.654 89.1578 647.895 97.5491 661.082 97.5491C671.121 97.5491 677.864 92.4544 680.112 84.9621H698.543C695.246 103.543 681.311 113.882 660.632 113.882C636.957 113.882 621.223 98.2984 621.223 74.9225C621.223 51.5467 636.957 35.9628 660.632 35.9628C682.51 35.9628 698.543 49.5987 698.543 73.1244V77.6197ZM640.103 65.4823H679.662C678.164 56.4916 671.271 50.6476 660.782 50.6476C650.293 50.6476 642.801 57.2408 640.103 65.4823Z" fill="#C2FC50"/>
<path d="M704.374 58.7393C704.374 43.1554 716.511 35.813 738.389 35.813C749.477 35.813 758.318 37.0117 766.41 40.0086V56.1919C761.015 54.2439 749.927 50.7975 736.89 50.7975C727.001 50.7975 722.355 53.195 722.355 57.5405C722.355 70.577 769.557 63.0848 769.557 90.0569C769.557 105.641 757.419 114.032 735.542 114.032C724.453 114.032 715.612 112.833 707.371 109.836V93.6532C712.765 95.6011 723.854 99.0476 736.89 99.0476C746.93 99.0476 751.425 95.6011 751.425 91.2556C751.425 78.369 704.374 85.7114 704.374 58.7393ZM775.54 15.7337C775.54 9.88977 779.736 5.9938 786.029 5.9938C792.323 5.9938 796.518 9.88977 796.518 15.7337C796.518 21.5777 792.323 25.4737 786.029 25.4737C779.736 25.4737 775.54 21.5777 775.54 15.7337ZM777.038 112.384V37.4613H795.02V112.384H777.038ZM861.538 28.9201C861.538 22.7764 866.033 18.7306 872.776 18.7306C879.519 18.7306 884.015 22.7764 884.015 28.9201C884.015 35.0637 879.519 39.1096 872.776 39.1096C866.033 39.1096 861.538 35.0637 861.538 28.9201ZM802.799 70.4272C802.799 49.7486 817.633 35.9628 839.96 35.9628C862.137 35.9628 877.122 49.7486 877.122 69.5281C877.122 88.4086 865.284 96.5002 857.942 96.5002V97.9987C866.333 97.9987 877.871 103.393 877.871 119.277C877.871 139.206 863.486 151.344 840.71 151.344C817.334 151.344 803.548 138.157 803.548 116.13H821.529C821.38 127.968 828.272 134.411 840.71 134.411C852.997 134.411 859.89 128.567 859.89 118.078C859.89 106.39 848.651 104.892 839.96 104.892C817.633 104.892 802.799 91.1058 802.799 70.4272ZM820.63 70.4272C820.63 81.0662 828.272 88.1089 839.96 88.1089C853.147 88.1089 859.141 82.7145 859.141 70.4272C859.141 59.6383 851.648 52.7455 839.96 52.7455C828.123 52.7455 820.63 59.6383 820.63 70.4272ZM902.182 72.525V112.384H884.201V73.7238C884.201 51.0972 899.186 35.9628 922.711 35.9628C945.338 35.9628 960.472 51.0972 960.472 73.7238V112.384H942.341V72.525C942.341 60.6872 934.249 52.7455 922.112 52.7455C910.274 52.7455 902.182 60.8371 902.182 72.525Z" fill="white"/>
</svg>
