<svg width="40" height="40" viewBox="0 0 40 40" fill="none" xmlns="http://www.w3.org/2000/svg">
<g clip-path="url(#clip0_14_819)">
<rect width="40" height="40" rx="2" fill="#C3FF3F"></rect>
<path d="M19.7094 27.8264H17.1596V24.01C15.5129 25.7321 13.0786 26.3582 10.144 26.4319L9.87838 26.4348H9.50729V27.8264H6.9565V22.7249C6.9565 17.178 11.3827 12.6643 16.896 12.5247L17.1596 12.5218H19.7094V27.8264ZM17.1596 15.0725C12.9335 15.0725 9.50729 18.4987 9.50729 22.7249V23.8841H9.87838C13.8086 23.8839 16.7262 20.9737 17.1596 17.2093V15.0725Z" fill="#1A2025"></path>
<path d="M20.5218 12.5214H23.0716V25.2753C27.2978 25.2753 30.7239 21.8492 30.7239 17.623V12.5214H33.2747V17.623C33.2747 23.1699 28.8485 27.6836 23.3353 27.8232L23.0716 27.8261H20.5218V12.5214Z" fill="#1A2025"></path>
</g>
<defs>
<clipPath id="clip0_14_819">
<rect width="40" height="40" rx="2" fill="white"></rect>
</clipPath>
</defs>
</svg>