<svg xmlns="http://www.w3.org/2000/svg" width="74.667" height="44" viewBox="0 0 74.667 44" fill="none">
  <path d="M 36.667 44 L 29.334 44 L 29.334 7.333 C 17.184 7.333 7.334 17.183 7.334 29.333 L 7.334 44 L 0 44 L 0 29.333 C 0 13.386 12.727 0.411 28.577 0.01 L 29.334 0 L 36.667 0 L 36.667 44 Z M 74.667 11.333 L 67.268 11.333 C 55.007 11.333 46.167 21.183 46.167 33.333 L 46.167 36.5 L 41.667 36.5 C 41.667 36.5 42.167 33.667 39.667 33 C 39.667 10.5 50.509 4.411 66.504 4.01 L 67.268 4 L 74.667 4 L 74.667 11.333 Z" fill="currentColor" fill-rule="nonzero"></path>
</svg>